<svg width="74" height="74" viewBox="0 0 74 74" fill="none" xmlns="http://www.w3.org/2000/svg">
<g clip-path="url(#clip0_2006_23081)">
<path d="M73.672 16.7074L66.027 9.06246L62.6939 5.73101C62.2413 5.3088 61.5321 5.33323 61.1099 5.78579C60.7085 6.2161 60.708 6.8836 61.1091 7.3142L63.6482 9.85485L56.5381 16.9664C55.1506 15.5789 52.2214 12.6498 50.8617 11.2886C50.4093 10.8648 49.6991 10.888 49.2753 11.3403C48.871 11.7719 48.871 12.4433 49.2753 12.875L50.8355 14.4336L45.0543 20.2147L25.306 39.9631C25.0842 40.1849 24.9655 40.4898 24.9792 40.8033C25.0687 42.7393 25.5672 44.6346 26.4423 46.364L23.9171 48.8892C22.6103 50.205 22.6177 52.331 23.9333 53.6376C23.9742 53.6783 24.016 53.7177 24.0589 53.7562L11.5901 66.225C7.90872 65.8257 4.93488 62.7423 1.12238 63.0152C0.503448 63.0144 0.000868388 63.5155 1.12397e-06 64.1344C-0.00086614 64.7534 0.500268 65.2559 1.1192 65.2568H1.12238C4.83933 65.1504 7.75146 68.3047 11.4638 68.468C11.7721 68.4881 11.9541 68.4881 12.27 68.5189C15.2287 68.7747 18.1933 68.0994 20.7491 66.5872C22.1944 65.724 23.8448 65.2645 25.5282 65.2568H46.5978C47.2167 65.2559 47.7179 64.7535 47.717 64.1344C47.7161 63.5166 47.2156 63.0161 46.5978 63.0152H25.5204C21.5999 62.7485 18.5522 65.9951 14.7289 66.2527L25.6453 55.3425C26.8819 56.7232 29.0036 56.8402 30.3844 55.6034C30.4275 55.5648 30.4697 55.5251 30.5108 55.4843L33.0375 52.9592C34.767 53.8341 36.6621 54.3328 38.5983 54.4222C38.9117 54.4351 39.2162 54.3167 39.4385 54.0954L59.1806 34.35L64.9618 28.5688L66.5235 30.129C66.9681 30.5596 67.6776 30.5482 68.1082 30.1034C68.529 29.6688 68.529 28.9787 68.1082 28.5441C66.7547 27.189 63.804 24.2413 62.4304 22.8663L69.5452 15.7531L72.0858 18.2922C72.5235 18.7303 73.2333 18.7306 73.6714 18.2929C74.1093 17.8554 74.1096 17.1455 73.672 16.7074ZM54.9534 18.5574L49.9616 23.5492L47.4302 21.0102L52.4174 16.0199L54.9534 18.5574ZM51.5464 25.1264L56.5382 20.1361L59.2653 22.8618L54.2751 27.8552L51.5464 25.1264ZM28.9258 53.8994C28.4964 54.3264 27.8027 54.3264 27.3734 53.8994L25.5019 52.0279C25.0732 51.5993 25.0732 50.9042 25.5017 50.4756L25.5019 50.4755L27.6309 48.3465C28.5776 49.667 29.7343 50.8237 31.0548 51.7704L28.9258 53.8994ZM38.2112 52.1513C32.4143 51.5737 27.8285 46.9888 27.2501 41.1918L45.8454 22.5965L56.8049 33.556L38.2112 52.1513ZM63.3815 26.9762L58.3913 31.9711L55.8599 29.4427L60.8501 24.4509L63.3815 26.9762ZM60.8501 21.2722L58.1214 18.5512L65.2315 11.4396L67.9586 14.1683L60.8501 21.2722Z" fill="#603CC0"/>
<path d="M46.7245 28.7564C46.2721 28.3326 45.562 28.3559 45.1382 28.8081C44.7339 29.2397 44.7339 29.9111 45.1382 30.3428L49.0585 34.2631C49.2685 34.4735 49.5536 34.5918 49.8509 34.5915C50.474 34.5814 50.971 34.0679 50.9608 33.4448C50.9562 33.159 50.8432 32.8857 50.6449 32.6799L46.7245 28.7564Z" fill="#603CC0"/>
<path d="M42.4892 32.9894C42.0446 32.5588 41.335 32.5703 40.9044 33.015C40.4837 33.4497 40.4837 34.1397 40.9044 34.5744L44.8264 38.4948C45.2973 38.8965 46.0047 38.8406 46.4064 38.3697C46.7644 37.9499 46.7638 37.3321 46.4049 36.9131L42.4892 32.9894Z" fill="#603CC0"/>
<path d="M38.2558 37.2258C37.8112 36.7952 37.1016 36.8066 36.671 37.2514C36.2503 37.686 36.2503 38.3761 36.671 38.8107L40.5914 42.731C41.022 43.1756 41.7315 43.1872 42.1761 42.7566C42.6208 42.326 42.6323 41.6164 42.2017 41.1718C42.1933 41.1631 42.1848 41.1546 42.1761 41.1462L38.2558 37.2258Z" fill="#603CC0"/>
<path d="M34.0224 41.4582C33.5778 41.0276 32.8682 41.039 32.4376 41.4838C32.0169 41.9184 32.0169 42.6085 32.4376 43.0431L36.3565 46.965C36.7942 47.4031 37.5041 47.4034 37.9422 46.9658C38.3803 46.5281 38.3806 45.8182 37.9429 45.3801L34.0224 41.4582Z" fill="#603CC0"/>
<path d="M62.9517 63.0156H53.9825C53.3636 63.0165 52.8624 63.5189 52.8633 64.138C52.8641 64.7558 53.3647 65.2563 53.9825 65.2572H62.9517C63.5707 65.2563 64.0718 64.7539 64.0709 64.1348C64.0702 63.517 63.5695 63.0165 62.9517 63.0156Z" fill="#603CC0"/>
</g>
<defs>
<clipPath id="clip0_2006_23081">
<rect width="74" height="74" fill="white"/>
</clipPath>
</defs>
</svg>
