<svg width="74" height="74" viewBox="0 0 74 74" fill="none" xmlns="http://www.w3.org/2000/svg">
<g clip-path="url(#clip0_2104_11430)">
<path d="M35.62 31.8379H46.6379C47.3618 31.8379 48.042 31.4814 48.4489 30.8826C53.8241 22.9701 51.5908 18.5593 51.5908 18.5593L47.1012 11.6346L47.7071 2.14152C47.7437 1.56874 47.289 1.08398 46.7149 1.08398H43.7474C43.2317 1.08398 42.8017 1.47827 42.7569 1.99193L41.9955 10.7366C39.433 13.9357 34.5661 13.9357 32.0035 10.7366L31.2421 1.99193C31.1975 1.47827 30.7673 1.08398 30.2516 1.08398H27.2841C26.7102 1.08398 26.2554 1.56874 26.2919 2.14152L26.8978 11.6346L22.4082 18.5593C22.4082 18.5593 20.1749 22.9701 25.5502 30.8826C25.957 31.4815 26.6372 31.8379 27.3612 31.8379H30.5557" stroke="#603CC0" stroke-width="2.5" stroke-miterlimit="10" stroke-linecap="round" stroke-linejoin="round"/>
<path d="M52.8869 62.0649C53.1582 57.7044 53.3544 53.0344 53.2011 50.1428C52.8796 44.0798 49.8653 39.3282 48.4735 37.4379C48.0615 36.8786 47.4064 36.5508 46.7116 36.5508H27.2884C26.5937 36.5508 25.9384 36.8786 25.5265 37.4379C24.1347 39.3282 21.1203 44.0798 20.7989 50.1428C20.5103 55.5866 21.4604 67.3329 21.8181 71.4519C21.8901 72.2804 22.5834 72.9151 23.4149 72.9151H31.2715C32.0249 72.9151 32.6766 72.3905 32.8375 71.6544L37 52.606L41.1625 71.6545C41.3234 72.3906 41.975 72.9153 42.7285 72.9153H50.5851C51.4165 72.9153 52.11 72.2804 52.1818 71.452C52.2713 70.4223 52.3976 68.9158 52.5326 67.1504" stroke="#603CC0" stroke-width="2.5" stroke-miterlimit="10" stroke-linecap="round" stroke-linejoin="round"/>
<path d="M29.0879 41.1992H44.9115" stroke="#603CC0" stroke-width="2.5" stroke-miterlimit="10" stroke-linecap="round" stroke-linejoin="round"/>
<path d="M42.582 18.1562H44.199" stroke="#603CC0" stroke-width="2.5" stroke-miterlimit="10" stroke-linecap="round" stroke-linejoin="round"/>
<path d="M37 52.6064L34.5957 51.793" stroke="#603CC0" stroke-width="2.5" stroke-miterlimit="10" stroke-linecap="round" stroke-linejoin="round"/>
<path d="M37 52.6064L39.4043 51.793" stroke="#603CC0" stroke-width="2.5" stroke-miterlimit="10" stroke-linecap="round" stroke-linejoin="round"/>
</g>
<defs>
<clipPath id="clip0_2104_11430">
<rect width="74" height="74" fill="white"/>
</clipPath>
</defs>
</svg>
