<svg width="74" height="64" viewBox="0 0 74 64" fill="none" xmlns="http://www.w3.org/2000/svg">
<path fill-rule="evenodd" clip-rule="evenodd" d="M46.2558 14.2916C40.6635 14.2916 37.1088 7.39878 41.5305 2.80358C45.8656 -1.66156 53.1486 1.80651 53.0619 7.70223C53.0185 9.00276 52.6284 10.2599 51.8914 11.3004L67.1076 26.5165L71.7461 21.878C72.96 20.6642 74.7807 22.4849 73.5669 23.6987L68.9283 28.3373L72.6999 32.1088C73.2201 32.629 73.2201 33.4527 72.6999 33.9295L52.8018 53.8709C52.2816 54.3912 51.4579 54.3912 50.981 53.8709L47.1662 50.0994L42.5276 54.738C41.3571 55.9084 39.4497 54.1311 40.7069 52.9172L45.3454 48.2787L31.0396 34.0596L27.9184 37.1375L31.6899 40.909C32.2101 41.4292 32.2101 42.2529 31.6899 42.7731L16.257 58.206C15.0865 59.3765 13.8293 57.5991 12.8756 56.6888L8.45381 61.1106C7.28333 62.2377 6.11286 60.5903 5.28919 59.7667L2.25463 62.8446C1.0408 64.0151 -0.823289 62.2377 0.390537 60.9805L3.46845 57.9459C2.60143 57.0789 0.99745 55.9084 2.12457 54.7813L6.58972 50.3595C5.54929 49.3191 3.85861 48.1486 5.02908 46.9782L20.462 31.5452C20.9822 31.025 21.8059 31.025 22.3261 31.5452L26.0976 35.3168L29.1755 32.2388L25.404 28.4673C24.1902 27.2535 26.0109 25.4328 27.2247 26.6466L31.0396 30.3748L35.0713 26.3431C36.2851 25.1293 38.1058 26.95 36.892 28.1639L32.8604 32.1955L39.1029 38.438L41.5739 35.8803L39.6665 33.9295C39.1896 33.4093 39.1896 32.629 39.7098 32.1088L50.981 20.8376C51.4579 20.3607 52.2816 20.3607 52.8018 20.8376L54.7092 22.745L57.2236 20.3173L50.0273 13.1211C48.9436 13.8581 47.5997 14.2916 46.2558 14.2916ZM40.967 40.2588L47.1662 46.4579L65.2868 28.3373L59.0877 22.1381L56.5733 24.5657L58.5675 26.4732C59.0877 26.9934 59.0877 27.8171 58.5675 28.3373L47.1662 39.7386C46.646 40.2154 45.8223 40.2154 45.3021 39.6952L43.3946 37.7444L40.967 40.2588ZM48.9869 48.2787L51.8914 51.1398L69.9688 33.0192L67.1076 30.158L48.9869 48.2787ZM11.0549 54.8247L8.41045 52.1803L4.89903 55.6917L7.54344 58.3361L11.0549 54.8247ZM7.80354 47.8885L15.3466 55.4316L28.9588 41.8194L21.4157 34.2763L7.80354 47.8885ZM42.4409 33.0192L46.2558 36.9641L55.793 27.4269L51.8914 23.612L42.4409 33.0192ZM46.2558 3.41049C43.1345 3.41049 40.4901 7.39878 43.438 10.4767C45.042 12.1674 47.5997 12.0373 49.2037 10.4767C51.9348 7.91899 49.8973 3.41049 46.2558 3.41049Z" fill="#603CC0"/>
</svg>
