<svg width="74" height="74" viewBox="0 0 74 74" fill="none" xmlns="http://www.w3.org/2000/svg">
<path d="M27.75 70.3326C27.7474 69.4472 27.9205 68.5699 28.2593 67.7518C28.5981 66.9337 29.0959 66.191 29.7238 65.5666L28.0888 63.9316C27.2454 64.7701 26.5768 65.7677 26.1217 66.8664C25.6666 67.9652 25.434 69.1434 25.4375 70.3326V71.6866H27.75V70.3326Z" fill="#603CC0"/>
<path d="M60.1251 71.6866V70.3326C60.1286 69.1434 59.8961 67.9652 59.4409 66.8664C58.9858 65.7677 58.3172 64.7701 57.4738 63.9316L55.8389 65.5666C56.4668 66.191 56.9645 66.9337 57.3033 67.7518C57.6421 68.5699 57.8152 69.4472 57.8126 70.3326V71.6866H60.1251Z" fill="#603CC0"/>
<path d="M13.0573 62.0987C13.2741 62.3155 13.5682 62.4373 13.8748 62.4373C14.1813 62.4373 14.4754 62.3155 14.6922 62.0987L18.161 58.63C18.3777 58.4131 18.4995 58.1191 18.4995 57.8125C18.4995 57.5059 18.3777 57.2119 18.161 56.995L16.0878 54.9219L17.9216 53.0881L21.151 56.3175C21.3679 56.5342 21.6619 56.656 21.9685 56.656C22.2751 56.656 22.5691 56.5342 22.786 56.3175L26.2547 52.8487C26.4715 52.6319 26.5933 52.3378 26.5933 52.0313C26.5933 51.7247 26.4715 51.4306 26.2547 51.2138L24.7597 49.7188L30.6404 43.8381L35.307 48.5047C35.4643 48.6631 35.6319 48.8088 35.8007 48.9522C35.5864 51.0621 34.5974 53.0176 33.0249 54.4407C31.4523 55.8637 29.4081 56.6531 27.2873 56.6563C26.1824 56.653 25.0879 56.869 24.0672 57.2918C23.0464 57.7145 22.1197 58.3356 21.3407 59.1191L21.1522 59.3075C20.3086 60.1459 19.6397 61.1434 19.1844 62.2422C18.7291 63.341 18.4964 64.5192 18.4998 65.7085V71.6875H20.8123V65.7085C20.8096 64.823 20.9827 63.9458 21.3215 63.1277C21.6603 62.3096 22.1581 61.5669 22.786 60.9425L22.9744 60.754C23.5395 60.1859 24.2116 59.7356 24.952 59.4292C25.6923 59.1228 26.486 58.9663 27.2873 58.9688C29.4874 58.9702 31.6355 58.2997 33.4443 57.0471L34.0687 57.6714C35.2128 58.8159 36.5712 59.7238 38.0663 60.3432C39.5614 60.9626 41.1638 61.2814 42.7822 61.2814C44.4005 61.2814 46.0029 60.9626 47.498 60.3432C48.9931 59.7238 50.3515 58.8159 51.4957 57.6714L52.0033 57.1638C53.7396 58.3404 55.7889 58.9691 57.8863 58.9688H58.01C58.8951 58.9686 59.7716 59.1428 60.5894 59.4815C61.4071 59.8201 62.1502 60.3166 62.7761 60.9425C63.4019 61.5683 63.8984 62.3114 64.237 63.1292C64.5757 63.9469 64.7499 64.8234 64.7498 65.7085V71.6875H67.0623V65.7085C67.0623 63.3077 66.1085 61.0052 64.4109 59.3076C62.7133 57.61 60.4108 56.6563 58.01 56.6563H57.8863C55.809 56.6495 53.8106 55.8603 52.2892 54.4461C50.7678 53.0318 49.835 51.0962 49.6769 49.025C49.8773 48.8608 50.07 48.6862 50.255 48.5012L55.6616 43.0946C56.9952 41.7608 57.9415 40.0899 58.3996 38.2603L58.7153 37H60.1248C60.663 36.9988 61.1937 36.8728 61.6752 36.6321C62.1566 36.3914 62.5758 36.0424 62.8998 35.6125L64.574 33.3798C65.4361 32.2261 65.9032 30.8252 65.906 29.3849C65.908 28.7144 65.7769 28.0502 65.5202 27.4308C65.2636 26.8113 64.8866 26.2489 64.411 25.7763C64.2135 25.5844 64.0004 25.4092 63.7739 25.2525L64.7405 17.6744C64.7471 17.6258 64.7502 17.5767 64.7498 17.5276C64.7522 14.7913 64.0779 12.0968 62.7868 9.68423C61.4956 7.27165 59.6278 5.21586 57.3498 3.7C54.8666 2.03953 51.9461 1.15416 48.9588 1.15625H36.6032C33.6159 1.15416 30.6954 2.03953 28.2123 3.7C25.9342 5.21586 24.0664 7.27165 22.7753 9.68423C21.4841 12.0968 20.8098 14.7913 20.8123 17.5276C20.8118 17.5767 20.8149 17.6258 20.8215 17.6744L21.7881 25.2525C21.5616 25.4092 21.3485 25.5844 21.151 25.7763C20.6755 26.2489 20.2984 26.8113 20.0418 27.4308C19.7852 28.0502 19.654 28.7144 19.656 29.3849C19.6592 30.8249 20.1258 32.2256 20.9868 33.3798L22.6623 35.6125C22.9863 36.0423 23.4055 36.3911 23.887 36.6319C24.3684 36.8726 24.899 36.9986 25.4373 37H26.8467L26.9311 37.3399L19.656 44.6151L18.161 43.12C17.9441 42.9033 17.6501 42.7815 17.3435 42.7815C17.0369 42.7815 16.7429 42.9033 16.526 43.12L13.0573 46.5888C12.8405 46.8056 12.7188 47.0997 12.7188 47.4063C12.7188 47.7128 12.8405 48.0069 13.0573 48.2237L16.2867 51.4531L14.4529 53.2869L12.3797 51.2138C12.1629 50.997 11.8688 50.8753 11.5623 50.8753C11.2557 50.8753 10.9616 50.997 10.7448 51.2138L7.27603 54.6825C7.05927 54.8994 6.9375 55.1934 6.9375 55.5C6.9375 55.8066 7.05927 56.1006 7.27603 56.3175L13.0573 62.0987ZM50.24 55.6561L49.8596 56.0365C48.9301 56.9662 47.8265 57.7037 46.612 58.2068C45.3974 58.71 44.0956 58.9689 42.781 58.9689C41.4664 58.9689 40.1646 58.71 38.95 58.2068C37.7355 57.7037 36.6319 56.9662 35.7024 56.0365L35.196 55.5301C36.5824 54.0649 37.5319 52.2416 37.9375 50.2657C38.9181 50.6698 39.9687 50.8768 41.0293 50.875H44.5327C45.5534 50.875 46.5649 50.6816 47.5135 50.305C47.8832 52.3157 48.8306 54.1751 50.24 55.6561ZM54.0267 41.4631L48.6201 46.8698C48.0845 47.4081 47.4475 47.8349 46.7459 48.1255C46.0443 48.416 45.2921 48.5646 44.5327 48.5625H41.0293C40.2699 48.5646 39.5177 48.416 38.8161 48.1255C38.1145 47.8349 37.4775 47.4081 36.9419 46.8698L32.2753 42.2031L36.661 37.8175C36.8777 37.6006 36.9995 37.3066 36.9995 37C36.9995 36.6934 36.8777 36.3994 36.661 36.1825L35.7441 35.2656L38.9735 32.0362L37.3385 30.4013L34.1091 33.6307L33.1922 32.7138C32.9754 32.497 32.6813 32.3753 32.3748 32.3753C32.0682 32.3753 31.7741 32.497 31.5573 32.7138L28.8389 35.4321L26.5935 26.4515V22.5873L32.4071 18.7116C34.8752 17.0634 37.777 16.185 40.7448 16.1875H44.8172C47.785 16.185 50.6868 17.0634 53.1549 18.7116L58.9685 22.5873V26.4515L56.1553 37.7018C55.7998 39.1254 55.0641 40.4255 54.0267 41.4631ZM27.2387 19.3788C28.0565 16.1447 29.9324 13.2771 32.568 11.2322C35.2036 9.18724 38.4473 8.08251 41.7832 8.09375H43.7788C47.1147 8.08251 50.3584 9.18724 52.994 11.2322C55.6296 13.2771 57.5055 16.1447 58.3233 19.3788L54.4383 16.7876C51.5904 14.8855 48.2419 13.8718 44.8172 13.875H40.7448C37.3201 13.8718 33.9716 14.8855 31.1237 16.7876L27.2387 19.3788ZM62.724 31.9911L61.0498 34.225C60.9421 34.3686 60.8024 34.4852 60.6418 34.5654C60.4813 34.6457 60.3043 34.6875 60.1248 34.6875H59.2934L61.2463 26.8747C61.2633 26.7987 61.273 26.7213 61.2752 26.6435C61.9238 26.7517 62.5129 27.0867 62.9374 27.5888C63.362 28.0909 63.5945 28.7274 63.5935 29.3849C63.5917 30.3246 63.2867 31.2386 62.724 31.9911ZM23.1248 17.4594C23.1336 15.1145 23.7197 12.8079 24.8312 10.7431C25.9427 8.67842 27.5455 6.91911 29.498 5.62053C31.601 4.21546 34.0739 3.46654 36.6032 3.46875H48.9588C51.4881 3.46654 53.961 4.21546 56.064 5.62053C58.0165 6.91911 59.6193 8.67842 60.7308 10.7431C61.8423 12.8079 62.4284 15.1145 62.4373 17.4594L61.5573 24.3587C61.466 24.3448 61.3735 24.3402 61.281 24.331V21.9688C61.2807 21.8813 61.271 21.794 61.2521 21.7086L60.674 19.225C59.8053 15.3974 57.6584 11.9801 54.5872 9.53629C51.5159 7.09247 47.7037 5.76802 43.7788 5.78125H41.7832C37.8575 5.76697 34.0442 7.09094 30.972 9.53485C27.8999 11.9788 25.7523 15.3967 24.8834 19.225L24.3053 21.7086C24.288 21.7942 24.2798 21.8814 24.281 21.9688V24.3275C24.1885 24.3368 24.096 24.3414 24.0047 24.3553L23.1248 17.4594ZM25.4373 34.6875C25.2578 34.6875 25.0807 34.6457 24.9202 34.5654C24.7596 34.4852 24.62 34.3686 24.5123 34.225L22.8368 31.9911C22.275 31.2382 21.9705 30.3244 21.9685 29.3849C21.9667 28.7278 22.1981 28.0914 22.6216 27.589C23.0451 27.0865 23.6331 26.7507 24.281 26.6412C24.2832 26.719 24.2929 26.7964 24.3099 26.8724L26.2686 34.6875H25.4373ZM32.3748 35.1662L34.2086 37L23.1248 48.0838L21.2909 46.25L32.3748 35.1662ZM17.3435 45.5724L23.8023 52.0313L21.9685 53.8651L15.5097 47.4063L17.3435 45.5724ZM11.5623 53.6662L15.7086 57.8125L13.8748 59.6463L9.72844 55.5L11.5623 53.6662Z" fill="#603CC0"/>
<path d="M43.9375 24.2812H41.625V26.5938H43.9375V24.2812Z" fill="#603CC0"/>
<path d="M43.9375 42.7812H41.625V45.0938H43.9375V42.7812Z" fill="#603CC0"/>
<path d="M43.9375 19.6562H41.625V21.9688H43.9375V19.6562Z" fill="#603CC0"/>
<path d="M43.9375 38.1562H41.625V40.4688H43.9375V38.1562Z" fill="#603CC0"/>
<path d="M43.9375 28.9062H41.625V31.2188H43.9375V28.9062Z" fill="#603CC0"/>
<path d="M43.9375 33.5312H41.625V35.8438H43.9375V33.5312Z" fill="#603CC0"/>
<path d="M48.0839 25.4369L46.5889 26.9319L48.2238 28.5669L49.7188 27.0719C50.0325 26.7788 50.4458 26.6159 50.8751 26.6159C51.3044 26.6159 51.7176 26.7788 52.0313 27.0719L53.5264 28.5669L55.1613 26.9319L53.6663 25.4369C52.9138 24.7201 51.9143 24.3203 50.8751 24.3203C49.8358 24.3203 48.8364 24.7201 48.0839 25.4369Z" fill="#603CC0"/>
<path d="M31.8964 25.4369L30.4014 26.9319L32.0363 28.5669L33.5313 27.0719C33.845 26.7788 34.2583 26.6159 34.6876 26.6159C35.1169 26.6159 35.5301 26.7788 35.8438 27.0719L37.3389 28.5669L38.9738 26.9319L37.4788 25.4369C36.7263 24.7201 35.7268 24.3203 34.6876 24.3203C33.6483 24.3203 32.6489 24.7201 31.8964 25.4369Z" fill="#603CC0"/>
<path d="M47.3994 33.4438C48.0475 33.9743 48.8079 34.3503 49.6229 34.5434L50.1513 32.291C49.6799 32.1803 49.2401 31.9632 48.8655 31.6562L47.3994 33.4438Z" fill="#603CC0"/>
<path d="M51.584 32.295L52.1031 34.5485C52.9192 34.3603 53.6814 33.9877 54.3312 33.4594L52.872 31.666C52.4963 31.9712 52.0557 32.1864 51.584 32.295Z" fill="#603CC0"/>
</svg>
