<svg width="74" height="74" viewBox="0 0 74 74" fill="none" xmlns="http://www.w3.org/2000/svg">
<path d="M14.7692 16.1816H14.3125M18.9641 16.1816H18.5074M23.1553 16.1816H22.6986" stroke="#603CC0" stroke-width="2.5" stroke-miterlimit="10" stroke-linecap="round" stroke-linejoin="round"/>
<mask id="mask0_2104_11943" style="mask-type:luminance" maskUnits="userSpaceOnUse" x="4" y="4" width="66" height="66">
<path d="M4 4.00001H70V70H4V4.00001Z" fill="white"/>
</mask>
<g mask="url(#mask0_2104_11943)">
<path d="M32.7655 31.3631C32.4439 31.7906 31.9322 32.0684 31.3586 32.0684C30.7812 32.0684 30.2697 31.7906 29.9482 31.3631" stroke="#603CC0" stroke-width="2.5" stroke-miterlimit="10" stroke-linecap="round" stroke-linejoin="round"/>
<path d="M48.9057 4.9668C48.9057 4.9668 48.7558 7.67087 48.9787 11.7014M7.26063 51.2378C6.94996 44.3464 7.3118 36.9104 9.48967 31.8461C9.83669 31.0421 10.1547 30.2271 10.4469 29.4014C8.59429 28.2394 7.31915 25.7877 7.31915 22.9519C7.31915 19.8205 8.87208 17.1567 11.0389 16.1811C9.37263 15.1433 8.25462 13.1994 8.25462 10.9705C8.25462 7.65618 10.7393 4.9668 13.8085 4.9668M9.35071 69.0332C9.35071 69.0332 8.17045 63.0917 7.54564 55.6081M34.8377 69.0332L31.359 52.4584L27.8767 69.0332M50.0384 20.8948C50.6413 24.5159 51.6937 28.2978 53.2247 31.8461C58.3842 43.8202 53.3636 69.0332 53.3636 69.0332" stroke="#603CC0" stroke-width="2.5" stroke-miterlimit="10" stroke-linecap="round" stroke-linejoin="round"/>
<path d="M43.2122 35.3068C39.6788 36.2095 35.6412 36.7211 31.3585 36.7211C22.2601 36.7211 14.2906 34.4188 9.85813 30.9658M52.8589 30.9658C51.3899 32.1096 49.5337 33.1255 47.3815 33.9732M7.94336 37.2108C9.22611 37.5503 10.5268 37.9487 11.835 38.4054C21.2186 41.6832 28.8007 47.3324 31.3585 52.459C33.9127 47.3324 41.4948 41.6832 50.8784 38.4054C52.1866 37.9487 53.4874 37.5503 54.7698 37.2108" stroke="#603CC0" stroke-width="2.5" stroke-miterlimit="10" stroke-linecap="round" stroke-linejoin="round"/>
<path d="M28.5598 14.3021H38.5244V18.0586H28.5598C27.5257 18.0586 26.6816 17.2108 26.6816 16.1803C26.6816 15.1463 27.5257 14.3021 28.5598 14.3021Z" stroke="#603CC0" stroke-width="2.5" stroke-miterlimit="10" stroke-linecap="round" stroke-linejoin="round"/>
<path d="M40.4024 9.84863C41.4329 9.84863 42.277 10.6928 42.277 11.7268V20.6355C42.277 21.666 41.4329 22.5137 40.4024 22.5137C39.3685 22.5137 38.5244 21.666 38.5244 20.6355V11.7268C38.5244 10.6928 39.3685 9.84863 40.4024 9.84863Z" stroke="#603CC0" stroke-width="2.5" stroke-miterlimit="10" stroke-linecap="round" stroke-linejoin="round"/>
<path d="M42.2773 11.7262H51.4453C52.4758 11.7262 53.3198 12.5704 53.3198 13.6009V18.7566C53.3198 19.7907 52.4758 20.6348 51.4453 20.6348H42.2773V11.7262Z" stroke="#603CC0" stroke-width="2.5" stroke-miterlimit="10" stroke-linecap="round" stroke-linejoin="round"/>
<path d="M53.3193 13.6021H58.1828C59.0124 13.6021 59.6883 14.2815 59.6883 15.1112V17.2522C59.6883 18.0818 59.0124 18.7578 58.1828 18.7578H53.3193V13.6021Z" stroke="#603CC0" stroke-width="2.5" stroke-miterlimit="10" stroke-linecap="round" stroke-linejoin="round"/>
<path d="M59.6887 16.1806H63.0832C65.1479 16.1806 66.8359 17.8688 66.8359 19.9332V51.7416C66.8359 53.8062 65.1479 55.498 63.0832 55.498H55.1797" stroke="#603CC0" stroke-width="2.5" stroke-miterlimit="10" stroke-linecap="round" stroke-linejoin="round"/>
</g>
</svg>
