<svg width="74" height="75" viewBox="0 0 74 75" fill="none" xmlns="http://www.w3.org/2000/svg">
<g clip-path="url(#clip0_256_2931)">
<path fill-rule="evenodd" clip-rule="evenodd" d="M20.1146 31.7583C16.1746 31.7583 12.9702 34.9627 12.9702 38.9024L12.9704 65.7407C12.9704 69.6805 16.1746 72.8848 20.1143 72.8848H37.0115C40.9511 72.8848 44.1554 69.6805 44.1554 65.7407L44.1558 38.9024C44.1558 34.9627 40.9511 31.7583 37.0114 31.7583H20.1146ZM37.0115 74.5006H20.1146C15.2843 74.5006 11.3545 70.5707 11.3545 65.7407V38.9024C11.3545 34.0722 15.2843 30.1426 20.1143 30.1426H37.0115C41.8413 30.1426 45.7712 34.0722 45.7712 38.9024V65.7407C45.7712 70.5707 41.8413 74.5006 37.0115 74.5006Z" fill="#603CC0"/>
<path fill-rule="evenodd" clip-rule="evenodd" d="M20.8838 46.4398C19.8083 46.4398 18.933 47.315 18.933 48.3903L18.9333 56.2515C18.9333 57.3268 19.8082 58.202 20.8836 58.202H36.2424C37.3179 58.202 38.1928 57.3268 38.1928 56.2515L38.1931 48.3903C38.1931 47.3148 37.3177 46.4398 36.2423 46.4398H20.8838ZM36.2424 59.8176H20.8838C18.9181 59.8176 17.3174 58.2172 17.3174 56.2515L17.3176 48.3903C17.3176 46.4246 18.9179 44.8242 20.8836 44.8242H36.2424C38.2081 44.8242 39.8085 46.4246 39.8085 48.3903L39.8088 56.2515C39.8088 58.2172 38.208 59.8176 36.2424 59.8176Z" fill="#603CC0"/>
<path fill-rule="evenodd" clip-rule="evenodd" d="M35.3674 31.7584C34.9214 31.7584 34.5593 31.3965 34.5593 30.9504V16.3306H22.5651V30.9504C22.5651 31.3965 22.2048 31.7584 21.7572 31.7584C21.3115 31.7584 20.9492 31.3965 20.9492 30.9504L20.9494 15.5228C20.9494 15.0767 21.3111 14.7148 21.7572 14.7148H35.3674C35.815 14.7148 36.1751 15.0767 36.1751 15.5228L36.1752 30.9504C36.1752 31.3965 35.8149 31.7584 35.3674 31.7584Z" fill="#603CC0"/>
<path fill-rule="evenodd" clip-rule="evenodd" d="M35.369 21.4732H21.7575C21.3115 21.4732 20.9492 21.1113 20.9492 20.6652C20.9494 20.2176 21.3111 19.8574 21.7572 19.8574H35.369C35.815 19.8574 36.1768 20.2176 36.1768 20.6652C36.1768 21.1113 35.8149 21.4732 35.369 21.4732Z" fill="#603CC0"/>
<path fill-rule="evenodd" clip-rule="evenodd" d="M35.369 26.6156H21.7575C21.3115 26.6156 20.9492 26.2538 20.9492 25.8078C20.9494 25.3617 21.3111 25 21.7572 25H35.369C35.815 25 36.1768 25.3617 36.1768 25.8078C36.1768 26.2538 35.8149 26.6156 35.369 26.6156Z" fill="#603CC0"/>
<path fill-rule="evenodd" clip-rule="evenodd" d="M44.5595 18.1664C44.2028 18.1681 43.8762 17.9291 43.7786 17.5689L40.7932 6.42431C40.4196 5.02912 40.4933 3.73653 41.0066 2.68652C41.5066 1.66654 42.3969 0.939503 43.5143 0.640084C44.6336 0.340323 45.7678 0.525539 46.7103 1.15835C47.6797 1.8096 48.3899 2.89341 48.7635 4.2886L51.7492 15.4332C51.8654 15.8641 51.6094 16.3067 51.1785 16.4211C50.748 16.5373 50.305 16.2814 50.1889 15.8506L47.2033 4.70598C46.9325 3.69283 46.4494 2.93046 45.8081 2.49976C45.2512 2.12438 44.6032 2.02178 43.9334 2.20188C43.2637 2.38027 42.7536 2.79423 42.4575 3.39666C42.1193 4.09007 42.0821 4.99208 42.3547 6.00523L45.3403 17.1498C45.4551 17.5807 45.199 18.0233 44.7681 18.1394C44.6992 18.1578 44.6283 18.1664 44.5595 18.1664Z" fill="#603CC0"/>
<path fill-rule="evenodd" clip-rule="evenodd" d="M44.2495 17.4431H44.2514H44.2495ZM52.2808 16.2348C52.0216 16.2348 51.754 16.2684 51.488 16.3391L44.4586 18.2224C43.1893 18.5639 42.3309 19.6529 42.5851 20.6022L43.9016 25.5163L55.6164 22.376L54.3006 17.4617C54.1001 16.7128 53.2534 16.2348 52.2808 16.2348ZM43.3309 27.3121C43.1893 27.3121 43.0496 27.2768 42.9267 27.2044C42.7401 27.0967 42.6053 26.9216 42.5498 26.7147L41.0233 21.0196C40.5356 19.1935 41.8883 17.2396 44.0409 16.6623L51.0689 14.779C53.2232 14.2017 55.3723 15.2183 55.862 17.0443L57.3869 22.7379C57.5028 23.1686 57.2471 23.6129 56.8163 23.7273L43.5395 27.2852C43.4706 27.3036 43.3996 27.3121 43.3309 27.3121Z" fill="#603CC0"/>
<path fill-rule="evenodd" clip-rule="evenodd" d="M58.4172 57.0627C58.1679 57.0627 57.9289 56.9482 57.7741 56.7445L53.5952 51.2531C53.5365 51.174 53.4926 51.0865 53.4639 50.9939L45.9832 25.815C45.8554 25.3876 46.0993 24.9383 46.5268 24.812C46.9561 24.6841 47.4054 24.9282 47.5315 25.3557L54.9706 50.3913L57.8651 54.1966L58.4694 49.454L52.3938 24.053C52.291 23.6187 52.5585 23.1829 52.9911 23.0786C53.4255 22.9758 53.8612 23.2435 53.9655 23.6778L60.0751 49.2217C60.0984 49.3161 60.1032 49.4152 60.0915 49.5112L59.2181 56.3575C59.176 56.6824 58.9421 56.9516 58.6256 57.0358C58.5568 57.0542 58.486 57.0627 58.4172 57.0627Z" fill="#603CC0"/>
<path fill-rule="evenodd" clip-rule="evenodd" d="M58.4088 64.229C58.3649 64.3164 58.3193 64.4057 58.2739 64.4965C57.4156 66.2013 55.6298 69.749 55.8116 70.7251H55.812C56.046 71.9772 57.1413 72.8843 58.417 72.8843C59.708 72.8843 60.805 71.9639 61.0271 70.6948C61.1739 69.8517 59.4318 66.309 58.5953 64.6059C58.5315 64.478 58.469 64.3517 58.4088 64.229ZM58.4171 74.5001C56.364 74.5001 54.6017 73.0374 54.2246 71.0229H54.2249C53.962 69.6211 55.194 67.0226 56.8316 63.7694C57.1884 63.0608 57.4963 62.4466 57.6764 62.0376C57.806 61.7449 58.0955 61.5547 58.417 61.5547C58.7367 61.5547 59.0277 61.7449 59.1558 62.0376C59.3577 62.4972 59.6757 63.1435 60.0443 63.8939C61.6902 67.2414 62.8396 69.7087 62.6192 70.9726C62.2609 73.0173 60.4936 74.5001 58.4171 74.5001Z" fill="#603CC0"/>
</g>
<defs>
<clipPath id="clip0_256_2931">
<rect width="74" height="74" fill="white" transform="translate(0 0.5)"/>
</clipPath>
</defs>
</svg>
