<svg width="74" height="75" viewBox="0 0 74 75" fill="none" xmlns="http://www.w3.org/2000/svg">
<path d="M73.1328 43.082H0.867188C0.637195 43.082 0.416623 42.9907 0.253993 42.828C0.0913641 42.6654 0 42.4448 0 42.2148C0 41.9849 0.0913641 41.7643 0.253993 41.6016C0.416623 41.439 0.637195 41.3477 0.867188 41.3477H73.1328C73.3628 41.3477 73.5834 41.439 73.746 41.6016C73.9086 41.7643 74 41.9849 74 42.2148C74 42.4448 73.9086 42.6654 73.746 42.828C73.5834 42.9907 73.3628 43.082 73.1328 43.082Z" fill="#603CC0"/>
<path d="M73.1328 52.332H0.867188C0.637195 52.332 0.416623 52.2407 0.253993 52.078C0.0913641 51.9154 0 51.6948 0 51.4648C0 51.2349 0.0913641 51.0143 0.253993 50.8516C0.416623 50.689 0.637195 50.5977 0.867188 50.5977H73.1328C73.3628 50.5977 73.5834 50.689 73.746 50.8516C73.9086 51.0143 74 51.2349 74 51.4648C74 51.6948 73.9086 51.9154 73.746 52.078C73.5834 52.2407 73.3628 52.332 73.1328 52.332Z" fill="#603CC0"/>
<path d="M9.23633 64.6387C8.55028 64.6387 7.87963 64.4352 7.3092 64.0541C6.73876 63.6729 6.29416 63.1312 6.03162 62.4974C5.76908 61.8635 5.70039 61.1661 5.83423 60.4932C5.96807 59.8203 6.29844 59.2023 6.78355 58.7171C7.26867 58.232 7.88674 57.9017 8.55961 57.7678C9.23248 57.634 9.92993 57.7027 10.5638 57.9652C11.1976 58.2278 11.7393 58.6724 12.1205 59.2428C12.5016 59.8132 12.7051 60.4839 12.7051 61.1699C12.7042 62.0896 12.3385 62.9714 11.6882 63.6218C11.0378 64.2721 10.156 64.6378 9.23633 64.6387ZM9.23633 59.4373C8.8933 59.4373 8.55798 59.539 8.27276 59.7296C7.98755 59.9202 7.76525 60.191 7.63398 60.5079C7.50271 60.8249 7.46836 61.1736 7.53528 61.51C7.6022 61.8465 7.76738 62.1555 8.00994 62.398C8.2525 62.6406 8.56153 62.8058 8.89797 62.8727C9.23441 62.9396 9.58313 62.9053 9.90005 62.774C10.217 62.6427 10.4878 62.4204 10.6784 62.1352C10.869 61.85 10.9707 61.5147 10.9707 61.1717C10.9707 60.7117 10.788 60.2705 10.4627 59.9453C10.1375 59.62 9.69631 59.4373 9.23633 59.4373Z" fill="#603CC0"/>
<path d="M18.5 73.4336C17.8139 73.4336 17.1433 73.2302 16.5729 72.849C16.0024 72.4679 15.5578 71.9261 15.2953 71.2923C15.0328 70.6584 14.9641 69.961 15.0979 69.2881C15.2317 68.6153 15.5621 67.9972 16.0472 67.5121C16.5323 67.027 17.1504 66.6966 17.8233 66.5627C18.4962 66.4289 19.1936 66.4976 19.8274 66.7601C20.4613 67.0227 21.003 67.4673 21.3842 68.0377C21.7653 68.6081 21.9688 69.2788 21.9688 69.9648C21.9679 70.8846 21.6022 71.7664 20.9518 72.4167C20.3015 73.067 19.4197 73.4328 18.5 73.4336ZM18.5 68.2305C18.157 68.2305 17.8217 68.3322 17.5364 68.5228C17.2512 68.7133 17.0289 68.9842 16.8976 69.3011C16.7664 69.618 16.732 69.9668 16.799 70.3032C16.8659 70.6396 17.0311 70.9487 17.2736 71.1912C17.5162 71.4338 17.8252 71.599 18.1616 71.6659C18.4981 71.7328 18.8468 71.6985 19.1637 71.5672C19.4806 71.4359 19.7515 71.2136 19.9421 70.9284C20.1327 70.6432 20.2344 70.3079 20.2344 69.9648C20.234 69.5051 20.0511 69.0643 19.7259 68.7394C19.4007 68.4144 18.9597 68.2319 18.5 68.2319V68.2305Z" fill="#603CC0"/>
<path d="M37 73.4336C36.3139 73.4336 35.6433 73.2302 35.0729 72.849C34.5024 72.4679 34.0578 71.9261 33.7953 71.2923C33.5328 70.6584 33.4641 69.961 33.5979 69.2881C33.7317 68.6153 34.0621 67.9972 34.5472 67.5121C35.0323 67.027 35.6504 66.6966 36.3233 66.5627C36.9962 66.4289 37.6936 66.4976 38.3274 66.7601C38.9613 67.0227 39.503 67.4673 39.8842 68.0377C40.2653 68.6081 40.4688 69.2788 40.4688 69.9648C40.4679 70.8846 40.1022 71.7664 39.4519 72.4167C38.8015 73.067 37.9197 73.4328 37 73.4336ZM37 68.2305C36.657 68.2305 36.3217 68.3322 36.0364 68.5228C35.7512 68.7133 35.5289 68.9842 35.3976 69.3011C35.2664 69.618 35.232 69.9668 35.299 70.3032C35.3659 70.6396 35.5311 70.9487 35.7736 71.1912C36.0162 71.4338 36.3252 71.599 36.6616 71.6659C36.9981 71.7328 37.3468 71.6985 37.6637 71.5672C37.9806 71.4359 38.2515 71.2136 38.4421 70.9284C38.6327 70.6432 38.7344 70.3079 38.7344 69.9648C38.734 69.5051 38.5511 69.0643 38.2259 68.7394C37.9007 68.4144 37.4597 68.2319 37 68.2319V68.2305Z" fill="#603CC0"/>
<path d="M55.5 73.4336C54.8139 73.4336 54.1433 73.2302 53.5729 72.849C53.0024 72.4679 52.5578 71.9261 52.2953 71.2923C52.0328 70.6584 51.9641 69.961 52.0979 69.2881C52.2317 68.6153 52.5621 67.9972 53.0472 67.5121C53.5323 67.027 54.1504 66.6966 54.8233 66.5627C55.4962 66.4289 56.1936 66.4976 56.8274 66.7601C57.4613 67.0227 58.003 67.4673 58.3842 68.0377C58.7653 68.6081 58.9688 69.2788 58.9688 69.9648C58.9679 70.8846 58.6022 71.7664 57.9518 72.4167C57.3015 73.067 56.4197 73.4328 55.5 73.4336ZM55.5 68.2305C55.157 68.2305 54.8217 68.3322 54.5364 68.5228C54.2512 68.7133 54.0289 68.9842 53.8976 69.3011C53.7664 69.618 53.732 69.9668 53.799 70.3032C53.8659 70.6396 54.0311 70.9487 54.2736 71.1912C54.5162 71.4338 54.8252 71.599 55.1616 71.6659C55.4981 71.7328 55.8468 71.6985 56.1637 71.5672C56.4806 71.4359 56.7515 71.2136 56.9421 70.9284C57.1327 70.6432 57.2344 70.3079 57.2344 69.9648C57.234 69.5051 57.0511 69.0643 56.7259 68.7394C56.4007 68.4144 55.9597 68.2319 55.5 68.2319V68.2305Z" fill="#603CC0"/>
<path d="M27.75 64.6387C27.0639 64.6387 26.3933 64.4352 25.8229 64.0541C25.2524 63.6729 24.8078 63.1312 24.5453 62.4974C24.2828 61.8635 24.2141 61.1661 24.3479 60.4932C24.4817 59.8203 24.8121 59.2023 25.2972 58.7171C25.7823 58.232 26.4004 57.9017 27.0733 57.7678C27.7462 57.634 28.4436 57.7027 29.0774 57.9652C29.7113 58.2278 30.253 58.6724 30.6342 59.2428C31.0153 59.8132 31.2188 60.4839 31.2188 61.1699C31.2179 62.0896 30.8522 62.9714 30.2018 63.6218C29.5515 64.2721 28.6697 64.6378 27.75 64.6387ZM27.75 59.4373C27.407 59.4373 27.0717 59.539 26.7864 59.7296C26.5012 59.9202 26.2789 60.191 26.1476 60.5079C26.0164 60.8249 25.982 61.1736 26.049 61.51C26.1159 61.8465 26.2811 62.1555 26.5236 62.398C26.7662 62.6406 27.0752 62.8058 27.4116 62.8727C27.7481 62.9396 28.0968 62.9053 28.4137 62.774C28.7306 62.6427 29.0015 62.4204 29.1921 62.1352C29.3827 61.85 29.4844 61.5147 29.4844 61.1717C29.4844 60.7117 29.3016 60.2705 28.9764 59.9453C28.6511 59.62 28.21 59.4373 27.75 59.4373Z" fill="#603CC0"/>
<path d="M46.2637 64.6387C45.5776 64.6387 44.907 64.4352 44.3365 64.0541C43.7661 63.6729 43.3215 63.1312 43.059 62.4974C42.7964 61.8635 42.7277 61.1661 42.8616 60.4932C42.9954 59.8203 43.3258 59.2023 43.8109 58.7171C44.296 58.232 44.9141 57.9017 45.587 57.7678C46.2598 57.634 46.9573 57.7027 47.5911 57.9652C48.2249 58.2278 48.7667 58.6724 49.1478 59.2428C49.529 59.8132 49.7324 60.4839 49.7324 61.1699C49.7316 62.0896 49.3659 62.9714 48.7155 63.6218C48.0652 64.2721 47.1834 64.6378 46.2637 64.6387ZM46.2637 59.4373C45.9206 59.4373 45.5853 59.539 45.3001 59.7296C45.0149 59.9202 44.7926 60.191 44.6613 60.5079C44.5301 60.8249 44.4957 61.1736 44.5626 61.51C44.6295 61.8465 44.7947 62.1555 45.0373 62.398C45.2798 62.6406 45.5889 62.8058 45.9253 62.8727C46.2617 62.9396 46.6105 62.9053 46.9274 62.774C47.2443 62.6427 47.5152 62.4204 47.7058 62.1352C47.8963 61.85 47.998 61.5147 47.998 61.1717C47.998 60.7117 47.8153 60.2705 47.4901 59.9453C47.1648 59.62 46.7237 59.4373 46.2637 59.4373Z" fill="#603CC0"/>
<path d="M64.7793 64.6387C64.0932 64.6387 63.4226 64.4352 62.8522 64.0541C62.2817 63.6729 61.8371 63.1312 61.5746 62.4974C61.312 61.8635 61.2434 61.1661 61.3772 60.4932C61.511 59.8203 61.8414 59.2023 62.3265 58.7171C62.8116 58.232 63.4297 57.9017 64.1026 57.7678C64.7754 57.634 65.4729 57.7027 66.1067 57.9652C66.7406 58.2278 67.2823 58.6724 67.6635 59.2428C68.0446 59.8132 68.248 60.4839 68.248 61.1699C68.2472 62.0896 67.8815 62.9714 67.2311 63.6218C66.5808 64.2721 65.699 64.6378 64.7793 64.6387ZM64.7793 59.4373C64.4363 59.4373 64.1009 59.539 63.8157 59.7296C63.5305 59.9202 63.3082 60.191 63.1769 60.5079C63.0457 60.8249 63.0113 61.1736 63.0782 61.51C63.1452 61.8465 63.3104 62.1555 63.5529 62.398C63.7955 62.6406 64.1045 62.8058 64.4409 62.8727C64.7774 62.9396 65.1261 62.9053 65.443 62.774C65.7599 62.6427 66.0308 62.4204 66.2214 62.1352C66.412 61.85 66.5137 61.5147 66.5137 61.1717C66.5137 60.7117 66.3309 60.2705 66.0057 59.9453C65.6804 59.62 65.2393 59.4373 64.7793 59.4373Z" fill="#603CC0"/>
<path d="M14.2533 36.4729C14.0635 36.473 13.8789 36.4109 13.7279 36.296C13.5768 36.1812 13.4676 36.0199 13.417 35.837L13.4141 35.8266C13.4112 35.8185 13.4086 35.809 13.4054 35.7977C13.3014 35.4661 12.4836 33.0571 10.3876 31.915C9.04609 31.184 7.41578 31.1056 5.54208 31.6774C5.43248 31.7134 5.3168 31.7272 5.20181 31.7179C5.08683 31.7086 4.97484 31.6765 4.87243 31.6234C4.77001 31.5703 4.67921 31.4973 4.60535 31.4087C4.53149 31.3201 4.47605 31.2177 4.44228 31.1074C4.40851 30.997 4.39709 30.8811 4.40869 30.7663C4.42028 30.6516 4.45466 30.5403 4.50981 30.4389C4.56496 30.3376 4.63977 30.2483 4.72986 30.1763C4.81995 30.1042 4.92351 30.0509 5.03448 30.0193C6.90819 29.4458 8.21417 28.4671 8.91659 27.1102C10.0913 24.8416 9.24005 22.1898 9.23138 22.1632C9.19658 22.0537 9.18386 21.9385 9.19397 21.8241C9.20408 21.7097 9.23681 21.5984 9.29027 21.4968C9.34373 21.3951 9.41684 21.3051 9.50538 21.2319C9.59391 21.1588 9.69609 21.1039 9.80599 21.0706C9.9159 21.0372 10.0313 21.026 10.1456 21.0377C10.2598 21.0493 10.3707 21.0835 10.4716 21.1383C10.5725 21.1931 10.6616 21.2674 10.7335 21.3569C10.8055 21.4464 10.859 21.5493 10.8909 21.6596C10.8978 21.6845 11.6768 24.3583 13.9203 25.5808C15.2615 26.3109 16.8918 26.3902 18.7652 25.8178C18.8747 25.7821 18.9903 25.7686 19.105 25.7781C19.2198 25.7875 19.3316 25.8198 19.4338 25.8729C19.536 25.926 19.6265 25.9989 19.7002 26.0874C19.7739 26.1759 19.8293 26.2782 19.863 26.3884C19.8967 26.4985 19.9082 26.6142 19.8967 26.7288C19.8852 26.8434 19.851 26.9546 19.7961 27.0558C19.7412 27.1571 19.6667 27.2463 19.5769 27.3185C19.4871 27.3906 19.3838 27.4441 19.2731 27.4759C17.3994 28.0497 16.0934 29.0284 15.391 30.3853C14.2848 32.5217 14.9753 34.9981 15.067 35.3017L15.0704 35.3132L15.0765 35.3323C15.1198 35.4627 15.1316 35.6014 15.1107 35.7372C15.0899 35.873 15.0371 36.0019 14.9567 36.1133C14.8763 36.2246 14.7706 36.3153 14.6483 36.3779C14.526 36.4404 14.3906 36.473 14.2533 36.4729ZM9.14061 29.6713C9.8741 29.7973 10.5815 30.0445 11.2337 30.4029C11.9418 30.7958 12.5795 31.3038 13.1207 31.906C13.232 31.1039 13.4762 30.326 13.8434 29.6042C14.1834 28.9421 14.6311 28.3412 15.1681 27.8259C14.4343 27.6998 13.7265 27.4525 13.0739 27.094C12.3656 26.7013 11.7276 26.1933 11.1863 25.5909C11.075 26.3931 10.8307 27.1711 10.4637 27.893C10.1241 28.5549 9.67697 29.1558 9.14061 29.6713Z" fill="#603CC0"/>
<path d="M52.566 36.692C52.4393 36.6921 52.3141 36.6645 52.1992 36.611C52.0843 36.5575 51.9826 36.4795 51.9011 36.3824C51.8196 36.2854 51.7604 36.1716 51.7276 36.0492C51.6948 35.9268 51.6892 35.7987 51.7113 35.6739C51.7136 35.6595 52.0003 33.8696 51.0366 32.5408C50.4637 31.7516 49.5352 31.2562 48.2772 31.0683C48.0719 31.0376 47.8844 30.9343 47.7488 30.7772C47.6131 30.62 47.5384 30.4194 47.5381 30.2118C47.5381 30.1686 47.5413 30.1254 47.5476 30.0826C47.5644 29.9699 47.6033 29.8617 47.6619 29.7641C47.7206 29.6664 47.7979 29.5813 47.8895 29.5135C47.981 29.4458 48.0851 29.3967 48.1956 29.3692C48.3061 29.3416 48.421 29.3361 48.5336 29.353C49.7968 29.5409 50.8331 29.3365 51.6127 28.7434C52.91 27.7562 53.1612 25.9684 53.1632 25.9519C53.1801 25.8392 53.219 25.731 53.2777 25.6334C53.3363 25.5358 53.4137 25.4507 53.5052 25.3829C53.5968 25.3152 53.7008 25.2662 53.8113 25.2386C53.9219 25.2111 54.0367 25.2056 54.1494 25.2224C54.262 25.2393 54.3702 25.2782 54.4679 25.3369C54.5655 25.3955 54.6506 25.4729 54.7183 25.5644C54.7861 25.656 54.8351 25.76 54.8626 25.8705C54.8902 25.9811 54.8957 26.0959 54.8788 26.2086C54.8762 26.2227 54.5898 28.0123 55.5535 29.3411C56.1261 30.1303 57.0546 30.6257 58.3126 30.8136C58.518 30.8442 58.7056 30.9475 58.8412 31.1047C58.9769 31.2618 59.0517 31.4625 59.052 31.6701C59.052 31.7134 59.0487 31.7566 59.0422 31.7993C59.0082 32.0268 58.8853 32.2314 58.7004 32.3683C58.5156 32.5051 58.284 32.5629 58.0565 32.5289C56.793 32.3402 55.7567 32.5454 54.9771 33.1386C53.6801 34.1257 53.4289 35.9136 53.4269 35.93C53.4012 36.1403 53.2994 36.3338 53.1409 36.4742C52.9823 36.6145 52.7778 36.692 52.566 36.692ZM51.689 30.7009C51.9748 30.9499 52.2308 31.2312 52.4519 31.5392C52.6922 31.8744 52.891 32.2375 53.0441 32.6206C53.3027 32.2991 53.5991 32.01 53.9269 31.7594C54.2281 31.5295 54.555 31.3355 54.9011 31.1813C54.6153 30.9323 54.3593 30.651 54.1382 30.343C53.8978 30.0078 53.6989 29.6447 53.5457 29.2617C53.2873 29.5832 52.9909 29.8723 52.6632 30.1228C52.362 30.3526 52.0351 30.5466 51.689 30.7009Z" fill="#603CC0"/>
<path d="M36.5089 17.0294C36.3877 17.0295 36.2679 17.0043 36.1571 16.9553C36.0464 16.9063 35.9471 16.8346 35.8657 16.7449C35.7843 16.6552 35.7226 16.5495 35.6845 16.4345C35.6465 16.3195 35.633 16.1978 35.6449 16.0772V16.0691C35.6449 16.0599 35.6449 16.0497 35.6472 16.0402C35.6686 15.7069 35.7671 13.2817 34.2955 11.547C33.3538 10.4367 31.9304 9.80599 30.0651 9.67273C29.8465 9.6571 29.6419 9.55927 29.4925 9.39892C29.3431 9.23858 29.2599 9.0276 29.2598 8.80844C29.2598 8.78762 29.2598 8.76681 29.2618 8.74571C29.2694 8.63194 29.2994 8.52079 29.3502 8.4187C29.401 8.31661 29.4715 8.2256 29.5577 8.15093C29.6439 8.07626 29.744 8.01941 29.8523 7.98367C29.9605 7.94793 30.0748 7.934 30.1885 7.94269C32.0547 8.07682 33.5529 7.65363 34.6436 6.68961C36.3594 5.17116 36.5982 2.73321 36.6216 2.42594V2.41033V2.39414C36.6383 2.16472 36.7455 1.95134 36.9195 1.80094C37.0057 1.72646 37.1057 1.66969 37.2138 1.63387C37.3219 1.59804 37.436 1.58386 37.5496 1.59214C37.6632 1.60041 37.7741 1.63098 37.8759 1.6821C37.9777 1.73321 38.0684 1.80388 38.1428 1.89005C38.2173 1.97623 38.2741 2.07623 38.3099 2.18435C38.3457 2.29246 38.3599 2.40658 38.3516 2.52017V2.52827C38.3516 2.53752 38.3517 2.54763 38.3493 2.55862C38.3279 2.89219 38.2294 5.31714 39.701 7.0518C40.6428 8.16209 42.0661 8.79283 43.9314 8.92637C44.15 8.942 44.3545 9.03979 44.5039 9.20008C44.6533 9.36037 44.7365 9.57127 44.7368 9.79038C44.7368 9.8112 44.7368 9.83201 44.7347 9.85311C44.7269 9.96679 44.6967 10.0778 44.6458 10.1798C44.5949 10.2817 44.5244 10.3726 44.4383 10.4472C44.3522 10.5219 44.2521 10.5787 44.144 10.6146C44.0358 10.6504 43.9216 10.6645 43.808 10.6561C41.9418 10.5232 40.4436 10.9452 39.353 11.9092C37.6371 13.4277 37.3983 15.8656 37.3749 16.1729V16.1885V16.2047C37.3634 16.4268 37.2673 16.6361 37.1062 16.7896C36.9451 16.943 36.7313 17.0288 36.5089 17.0294ZM34.0602 9.08767C34.653 9.45046 35.1834 9.90649 35.631 10.4382C36.116 11.0185 36.5038 11.6737 36.7791 12.3781C37.1522 11.7201 37.6294 11.1269 38.1921 10.6214C38.7109 10.159 39.3008 9.78315 39.9392 9.50826C39.3464 9.14546 38.816 8.68944 38.3684 8.15776C37.8834 7.57741 37.4957 6.92228 37.2203 6.21786C36.8472 6.87583 36.37 7.46905 35.8073 7.97449C35.2886 8.43686 34.6989 8.81273 34.0608 9.08767H34.0602Z" fill="#603CC0"/>
<path d="M14.6688 12.9551H12.915C12.685 12.9551 12.4645 12.8637 12.3018 12.7011C12.1392 12.5385 12.0479 12.3179 12.0479 12.0879C12.0479 11.8579 12.1392 11.6373 12.3018 11.4747C12.4645 11.3121 12.685 11.2207 12.915 11.2207H14.6688C14.8988 11.2207 15.1193 11.3121 15.282 11.4747C15.4446 11.6373 15.536 11.8579 15.536 12.0879C15.536 12.3179 15.4446 12.5385 15.282 12.7011C15.1193 12.8637 14.8988 12.9551 14.6688 12.9551Z" fill="#603CC0"/>
<path d="M16.4473 16.4853C16.2173 16.4853 15.9967 16.3939 15.8341 16.2313C15.6714 16.0687 15.5801 15.8481 15.5801 15.6181V13.8652C15.5801 13.6352 15.6714 13.4147 15.8341 13.252C15.9967 13.0894 16.2173 12.998 16.4473 12.998C16.6773 12.998 16.8978 13.0894 17.0605 13.252C17.2231 13.4147 17.3145 13.6352 17.3145 13.8652V15.6181C17.3145 15.8481 17.2231 16.0687 17.0605 16.2313C16.8978 16.3939 16.6773 16.4853 16.4473 16.4853Z" fill="#603CC0"/>
<path d="M19.9764 12.9551H18.2227C17.9927 12.9551 17.7721 12.8637 17.6095 12.7011C17.4468 12.5385 17.3555 12.3179 17.3555 12.0879C17.3555 11.8579 17.4468 11.6373 17.6095 11.4747C17.7721 11.3121 17.9927 11.2207 18.2227 11.2207H19.9764C20.2064 11.2207 20.427 11.3121 20.5896 11.4747C20.7522 11.6373 20.8436 11.8579 20.8436 12.0879C20.8436 12.3179 20.7522 12.5385 20.5896 12.7011C20.427 12.8637 20.2064 12.9551 19.9764 12.9551Z" fill="#603CC0"/>
<path d="M16.4453 11.1773C16.2153 11.1773 15.9947 11.0859 15.8321 10.9233C15.6695 10.7607 15.5781 10.5401 15.5781 10.3101V8.55664C15.5781 8.32665 15.6695 8.10608 15.8321 7.94345C15.9947 7.78082 16.2153 7.68945 16.4453 7.68945C16.6753 7.68945 16.8959 7.78082 17.0585 7.94345C17.2211 8.10608 17.3125 8.32665 17.3125 8.55664V10.3101C17.3125 10.5401 17.2211 10.7607 17.0585 10.9233C16.8959 11.0859 16.6753 11.1773 16.4453 11.1773Z" fill="#603CC0"/>
<path d="M62.2665 18.9023H60.5801C60.3501 18.9023 60.1295 18.811 59.9669 18.6484C59.8043 18.4857 59.7129 18.2651 59.7129 18.0352C59.7129 17.8052 59.8043 17.5846 59.9669 17.422C60.1295 17.2593 60.3501 17.168 60.5801 17.168H62.2665C62.4965 17.168 62.717 17.2593 62.8797 17.422C63.0423 17.5846 63.1337 17.8052 63.1337 18.0352C63.1337 18.2651 63.0423 18.4857 62.8797 18.6484C62.717 18.811 62.4965 18.9023 62.2665 18.9023Z" fill="#603CC0"/>
<path d="M63.9756 22.298C63.7456 22.298 63.525 22.2066 63.3624 22.044C63.1998 21.8814 63.1084 21.6608 63.1084 21.4308V19.7441C63.1084 19.5141 63.1998 19.2936 63.3624 19.1309C63.525 18.9683 63.7456 18.877 63.9756 18.877C64.2056 18.877 64.4262 18.9683 64.5888 19.1309C64.7514 19.2936 64.8428 19.5141 64.8428 19.7441V21.4308C64.8428 21.6608 64.7514 21.8814 64.5888 22.044C64.4262 22.2066 64.2056 22.298 63.9756 22.298Z" fill="#603CC0"/>
<path d="M67.3703 18.9023H65.6836C65.4536 18.9023 65.233 18.811 65.0704 18.6484C64.9078 18.4857 64.8164 18.2651 64.8164 18.0352C64.8164 17.8052 64.9078 17.5846 65.0704 17.422C65.233 17.2593 65.4536 17.168 65.6836 17.168H67.3703C67.6003 17.168 67.8208 17.2593 67.9835 17.422C68.1461 17.5846 68.2375 17.8052 68.2375 18.0352C68.2375 18.2651 68.1461 18.4857 67.9835 18.6484C67.8208 18.811 67.6003 18.9023 67.3703 18.9023Z" fill="#603CC0"/>
<path d="M63.9746 17.1942C63.7446 17.1942 63.524 17.1028 63.3614 16.9402C63.1988 16.7776 63.1074 16.557 63.1074 16.327V14.6406C63.1074 14.4106 63.1988 14.1901 63.3614 14.0274C63.524 13.8648 63.7446 13.7734 63.9746 13.7734C64.2046 13.7734 64.4252 13.8648 64.5878 14.0274C64.7504 14.1901 64.8418 14.4106 64.8418 14.6406V16.327C64.8418 16.557 64.7504 16.7776 64.5878 16.9402C64.4252 17.1028 64.2046 17.1942 63.9746 17.1942Z" fill="#603CC0"/>
</svg>
