<svg width="74" height="75" viewBox="0 0 74 75" fill="none" xmlns="http://www.w3.org/2000/svg">
<path fill-rule="evenodd" clip-rule="evenodd" d="M33.257 6.60925L28.1396 10.3273H21.8142C19.0895 10.3273 16.6748 12.0817 15.8329 14.673L13.8781 20.6888L8.76092 24.4069C6.55651 26.0083 5.63422 28.8471 6.47628 31.4383L8.43083 37.4542L6.47628 43.47C5.63422 46.0612 6.55651 48.8998 8.76092 50.5014L13.8781 54.2193L15.8329 60.2351C16.6748 62.8264 19.0895 64.581 21.8142 64.581H28.1396L33.257 68.2988C35.4612 69.9004 38.4459 69.9004 40.6504 68.2988L45.7676 64.581H52.0931C54.8176 64.581 57.2324 62.8264 58.0744 60.2351L60.029 54.2193L65.1464 50.5014C67.3506 48.8998 68.2729 46.0612 67.4311 43.47L65.4763 37.4542L67.4311 31.4383C68.2729 28.8471 67.3506 26.0083 65.1464 24.4069L60.029 20.6888L58.0744 14.673C57.2324 12.0817 54.8176 10.3273 52.0931 10.3273H45.7676L40.6504 6.60925C38.4459 5.00785 35.4612 5.00785 33.257 6.60925ZM34.2751 8.01067C35.8724 6.85037 38.035 6.85037 39.632 8.01067C42.0559 9.77171 44.9771 11.8942 44.9771 11.8942C45.1251 12.0017 45.3034 12.0595 45.4863 12.0595H52.0931C54.0672 12.0595 55.8168 13.3308 56.4269 15.2082C57.3527 18.0578 58.4686 21.4918 58.4686 21.4918C58.5251 21.6658 58.6353 21.8173 58.7833 21.9248C58.7833 21.9248 61.7044 24.0471 64.1283 25.8083C65.7253 26.9686 66.3936 29.0254 65.7835 30.9031C64.8577 33.7525 63.7421 37.1864 63.7421 37.1864C63.6856 37.3604 63.6856 37.5479 63.7421 37.7217C63.7421 37.7217 64.8577 41.1558 65.7835 44.0052C66.3936 45.8829 65.7253 47.9397 64.1283 49.1C61.7044 50.861 58.7833 52.9833 58.7833 52.9833C58.6353 53.0908 58.5251 53.2426 58.4686 53.4165C58.4686 53.4165 57.3527 56.8505 56.4269 59.6999C55.8168 61.5775 54.0672 62.8486 52.0931 62.8486C49.097 62.8486 45.4863 62.8486 45.4863 62.8486C45.3034 62.8486 45.1251 62.9066 44.9771 63.0141C44.9771 63.0141 42.0559 65.1364 39.632 66.8974C38.035 68.0579 35.8724 68.0579 34.2751 66.8974C31.8512 65.1364 28.9301 63.0141 28.9301 63.0141C28.7821 62.9066 28.6039 62.8486 28.421 62.8486C28.421 62.8486 24.8104 62.8486 21.8142 62.8486C19.8399 62.8486 18.0903 61.5775 17.4802 59.6999C16.5544 56.8505 15.4386 53.4165 15.4386 53.4165C15.3823 53.2426 15.2721 53.0908 15.1241 52.9833C15.1241 52.9833 12.203 50.861 9.77905 49.1C8.18181 47.9397 7.51353 45.8829 8.12361 44.0052C9.04944 41.1558 10.1653 37.7217 10.1653 37.7217C10.2218 37.5479 10.2218 37.3604 10.1653 37.1864C10.1653 37.1864 9.04944 33.7525 8.12361 30.9031C7.51353 29.0254 8.18181 26.9686 9.77905 25.8083C12.203 24.0471 15.1241 21.9248 15.1241 21.9248C15.2721 21.8173 15.3823 21.6658 15.4386 21.4918C15.4386 21.4918 16.5544 18.0578 17.4802 15.2082C18.0903 13.3308 19.8399 12.0595 21.8142 12.0595H28.421C28.6039 12.0595 28.7821 12.0017 28.9301 11.8942L34.2751 8.01067Z" fill="#603CC0"/>
<path fill-rule="evenodd" clip-rule="evenodd" d="M28.2716 29.5895C29.7042 33.9165 33.9081 36.8345 38.9532 35.5411C42.7411 34.5702 45.2367 31.9045 46.8487 29.032C49.1964 24.8487 49.647 20.2556 49.647 20.2556C49.6782 19.9394 49.5337 19.6315 49.2706 19.4536C49.0074 19.2755 48.668 19.2557 48.3859 19.4021C45.3685 20.9689 42.8293 20.6303 40.3536 20.284C38.5104 20.0259 36.6966 19.7625 34.7743 20.0753C31.638 20.5856 29.572 22.8314 28.6321 25.1682C27.9856 26.7755 27.8848 28.4213 28.2714 29.5895H28.2716ZM29.9158 29.0451C29.6329 28.19 29.766 26.9908 30.2391 25.8147C30.9787 23.9763 32.585 22.1864 35.0524 21.785C37.263 21.4252 39.3155 21.9322 41.4623 22.1744C43.4152 22.3947 45.4363 22.423 47.6814 21.6034C47.3711 23.1817 46.6999 25.7575 45.3382 28.1844C43.9407 30.6744 41.807 33.0214 38.5231 33.8632C34.4533 34.9065 31.0716 32.5354 29.916 29.0451H29.9158Z" fill="#603CC0"/>
<path fill-rule="evenodd" clip-rule="evenodd" d="M21.4971 28.4378C24.3376 29.5365 26.9507 30.055 29.3208 30.1774C35.1636 30.4798 39.5431 28.3804 42.2437 26.5341C42.6383 26.2643 42.7397 25.7249 42.4699 25.3304C42.2001 24.9357 41.6607 24.8344 41.2661 25.1042C38.7884 26.7981 34.7708 28.7248 29.4101 28.4475C27.2022 28.3334 24.7685 27.8458 22.122 26.8222C21.6763 26.6497 21.1743 26.8717 21.0018 27.3176C20.8295 27.7634 21.0513 28.2654 21.4971 28.4378Z" fill="#603CC0"/>
<path fill-rule="evenodd" clip-rule="evenodd" d="M17.6824 44.9323L20.1822 43.6298V52.9894C20.1822 53.4675 20.5703 53.8556 21.0482 53.8556C21.5263 53.8556 21.9143 53.4675 21.9143 52.9894V42.202C21.9143 41.8994 21.7564 41.6185 21.4974 41.4616C21.2386 41.3045 20.9166 41.2941 20.648 41.434L16.8819 43.396C16.4581 43.617 16.2933 44.1404 16.514 44.5642C16.735 44.9882 17.2584 45.1531 17.6824 44.9323Z" fill="#603CC0"/>
<path fill-rule="evenodd" clip-rule="evenodd" d="M54.525 42.1388L46.6845 51.9823C46.3868 52.3562 46.4486 52.9017 46.8225 53.1995C47.1963 53.4972 47.7417 53.4355 48.0396 53.0615L55.8798 43.2181C56.1777 42.8441 56.116 42.2989 55.742 42.001C55.3681 41.7031 54.8226 41.7651 54.525 42.1388Z" fill="#603CC0"/>
<path fill-rule="evenodd" clip-rule="evenodd" d="M47.9485 41.2812C46.857 41.2812 45.9707 42.1676 45.9707 43.2591C45.9707 44.3506 46.857 45.2369 47.9485 45.2369C49.04 45.2369 49.9264 44.3506 49.9264 43.2591C49.9264 42.1676 49.04 41.2812 47.9485 41.2812ZM47.9485 43.0136C48.0841 43.0136 48.194 43.1236 48.194 43.2591C48.194 43.3946 48.0841 43.5046 47.9485 43.5046C47.813 43.5046 47.7031 43.3946 47.7031 43.2591C47.7031 43.1236 47.813 43.0136 47.9485 43.0136Z" fill="#603CC0"/>
<path fill-rule="evenodd" clip-rule="evenodd" d="M54.428 49.7832C53.3365 49.7832 52.4502 50.6693 52.4502 51.7608C52.4502 52.8525 53.3365 53.7387 54.428 53.7387C55.5195 53.7387 56.4059 52.8525 56.4059 51.7608C56.4059 50.6693 55.5195 49.7832 54.428 49.7832ZM54.428 51.5153C54.5636 51.5153 54.6735 51.6253 54.6735 51.7608C54.6735 51.8964 54.5636 52.0065 54.428 52.0065C54.2925 52.0065 54.1825 51.8964 54.1825 51.7608C54.1825 51.6253 54.2925 51.5153 54.428 51.5153Z" fill="#603CC0"/>
<path fill-rule="evenodd" clip-rule="evenodd" d="M32.4302 49.8197V45.3718C32.4302 43.1429 30.6232 41.3359 28.3943 41.3359C28.3943 41.3359 28.3943 41.3359 28.3941 41.3359C26.1654 41.3359 24.3584 43.1429 24.3584 45.3718V49.8197C24.3584 52.0487 26.1654 53.8557 28.3941 53.8557H28.3943C30.6232 53.8557 32.4302 52.0487 32.4302 49.8197ZM30.6979 45.3718V49.8197C30.6979 51.0921 29.6667 52.1235 28.3943 52.1235H28.3941C27.122 52.1235 26.0905 51.0921 26.0905 49.82C26.0905 49.8197 26.0905 45.3718 26.0905 45.3718C26.0905 44.0995 27.122 43.0683 28.3941 43.0683H28.3943C29.6667 43.0683 30.6979 44.0995 30.6979 45.3718Z" fill="#603CC0"/>
<path fill-rule="evenodd" clip-rule="evenodd" d="M42.9449 49.8197V45.3718C42.9449 43.1429 41.1381 41.3359 38.9092 41.3359H38.909C36.68 41.3359 34.8733 43.1429 34.873 45.3718V49.8197C34.8733 52.0487 36.68 53.8557 38.909 53.8557H38.9092C41.1381 53.8557 42.9449 52.0487 42.9449 49.8197ZM41.2127 45.3718V49.8197C41.2127 51.0921 40.1813 52.1235 38.9092 52.1235H38.909C37.6368 52.1235 36.6054 51.0921 36.6054 49.82C36.6054 49.8197 36.6054 45.3718 36.6054 45.3718C36.6054 44.0995 37.6368 43.0683 38.909 43.0683H38.9092C40.1813 43.0683 41.2127 44.0995 41.2127 45.3718Z" fill="#603CC0"/>
</svg>
